# xmcd CD database file
#
# Track frame offsets:
#	182
#	31615
#	42492
#	57120
#	79425
#	90392
#	96975
#	103812
#	120272
#	134525
#	143132
#	163835
#
# Disc length: 2772 seconds
#
# Revision: 0
# Processed by: cddbd v1.5.2PL0 Copyright (c) Steve Scherf et al.
# Submitted via: CDex 1.51
#
DISCID=9d0ad20c
DTITLE=Autumn Dreams - Autumn Dreams - A Poetic New Age Encounter
DYEAR=1900
DGENRE=New Age
TTITLE0=Indian SUmmer
TTITLE1=No! - Thomas Hood
TTITLE2=SUmmer Longings - Denis Florence
TTITLE3=The Boblink - Thomas Hill
TTITLE4=The English Robin - Harrison Weir
TTITLE5=The End of Summer - Edna
TTITLE6=Exeunt - Richard Wilbur
TTITLE7=To Autumn - John Keats
TTITLE8=Ungathered Love - Philip Bourke
TTITLE9=The Way Through The Woods - Rudy
TTITLE10=Night - William Blake
TTITLE11=Ode to The West Wind - Percy
EXTD=
EXTT0=
EXTT1=
EXTT2=
EXTT3=
EXTT4=
EXTT5=
EXTT6=
EXTT7=
EXTT8=
EXTT9=
EXTT10=
EXTT11=
PLAYORDER=
